<?xml version="1.0" encoding="utf-8"?>
<!-- Generator: Adobe Illustrator 24.3.0, SVG Export Plug-In . SVG Version: 6.00 Build 0)  -->
<svg version="1.1" id="图层_1" xmlns="http://www.w3.org/2000/svg" xmlns:xlink="http://www.w3.org/1999/xlink" x="0px" y="0px"
	 viewBox="0 0 276.2 206.8" style="enable-background:new 0 0 276.2 206.8;" xml:space="preserve">
<style type="text/css">
	.st0{fill:none;stroke:#B4B4B5;stroke-width:0.5;stroke-miterlimit:10;stroke-dasharray:3;}
	.st1{fill:#BAE3F6;stroke:#231815;stroke-miterlimit:10;}
	.st2{fill:#FCEBDD;stroke:#231815;stroke-miterlimit:10;}
	.st3{fill:#FBD7BB;stroke:#231815;stroke-miterlimit:10;}
	.st4{fill:#F9C59A;stroke:#231815;stroke-miterlimit:10;}
	.st5{fill:#78A3F6;stroke:#231815;stroke-miterlimit:10;}
</style>
<line class="st0" x1="19.9" y1="19.3" x2="78.7" y2="61.2"/>
<line class="st0" x1="19.9" y1="61.2" x2="78.7" y2="61.2"/>
<line class="st0" x1="19.9" y1="103" x2="78.7" y2="61.2"/>
<line class="st0" x1="19.9" y1="144.8" x2="78.7" y2="61.2"/>
<line class="st0" x1="19.9" y1="186.7" x2="78.7" y2="61.2"/>
<line class="st0" x1="19.9" y1="186.7" x2="78.7" y2="186.7"/>
<line class="st0" x1="19.9" y1="144.8" x2="78.7" y2="186.7"/>
<line class="st0" x1="19.9" y1="103" x2="78.7" y2="186.7"/>
<line class="st0" x1="19.9" y1="58.2" x2="78.7" y2="186.7"/>
<line class="st0" x1="19.9" y1="19.3" x2="78.7" y2="186.7"/>
<line class="st0" x1="19.9" y1="61.2" x2="78.7" y2="19.3"/>
<line class="st0" x1="19.9" y1="19.3" x2="78.7" y2="19.3"/>
<line class="st0" x1="19.9" y1="103" x2="78.7" y2="19.3"/>
<line class="st0" x1="19.9" y1="144.8" x2="78.7" y2="19.3"/>
<line class="st0" x1="19.9" y1="186.7" x2="78.7" y2="19.3"/>
<line class="st0" x1="19.9" y1="19.3" x2="78.7" y2="103"/>
<line class="st0" x1="19.9" y1="61.2" x2="78.7" y2="103"/>
<line class="st0" x1="19.9" y1="103" x2="78.7" y2="103"/>
<line class="st0" x1="19.9" y1="144.8" x2="78.7" y2="103"/>
<line class="st0" x1="19.9" y1="186.7" x2="78.7" y2="103"/>
<line class="st0" x1="19.9" y1="19.3" x2="78.7" y2="144.8"/>
<line class="st0" x1="19.9" y1="61.2" x2="78.7" y2="144.8"/>
<line class="st0" x1="19.9" y1="103" x2="78.7" y2="144.8"/>
<line class="st0" x1="19.9" y1="144.8" x2="78.7" y2="144.8"/>
<line class="st0" x1="19.9" y1="186.7" x2="78.7" y2="144.8"/>
<line class="st0" x1="78.7" y1="19.3" x2="137.6" y2="19.3"/>
<line class="st0" x1="196.5" y1="19.3" x2="255.4" y2="19.3"/>
<line class="st0" x1="78.7" y1="19.3" x2="137.6" y2="61.2"/>
<line class="st0" x1="196.5" y1="19.3" x2="255.4" y2="61.2"/>
<line class="st0" x1="78.7" y1="19.3" x2="137.6" y2="103"/>
<line class="st0" x1="196.5" y1="19.3" x2="255.4" y2="103"/>
<line class="st0" x1="78.7" y1="19.3" x2="137.6" y2="144.8"/>
<line class="st0" x1="196.5" y1="19.3" x2="255.4" y2="144.8"/>
<line class="st0" x1="78.7" y1="19.3" x2="137.6" y2="186.7"/>
<line class="st0" x1="196.5" y1="19.3" x2="255.4" y2="186.7"/>
<line class="st0" x1="78.7" y1="61.2" x2="137.6" y2="19.3"/>
<line class="st0" x1="196.5" y1="61.2" x2="255.4" y2="19.3"/>
<line class="st0" x1="78.7" y1="61.2" x2="137.6" y2="61.2"/>
<line class="st0" x1="196.5" y1="61.2" x2="255.4" y2="61.2"/>
<line class="st0" x1="78.7" y1="61.2" x2="137.6" y2="103"/>
<line class="st0" x1="196.5" y1="61.2" x2="255.4" y2="103"/>
<line class="st0" x1="78.7" y1="61.2" x2="137.6" y2="144.8"/>
<line class="st0" x1="196.5" y1="61.2" x2="255.4" y2="144.8"/>
<line class="st0" x1="78.7" y1="61.2" x2="137.6" y2="186.7"/>
<line class="st0" x1="196.5" y1="61.2" x2="255.4" y2="186.7"/>
<line class="st0" x1="78.7" y1="103" x2="137.6" y2="19.3"/>
<line class="st0" x1="196.5" y1="103" x2="255.4" y2="19.3"/>
<line class="st0" x1="78.7" y1="103" x2="137.6" y2="61.2"/>
<line class="st0" x1="196.5" y1="103" x2="255.4" y2="61.2"/>
<line class="st0" x1="78.7" y1="103" x2="137.6" y2="103"/>
<line class="st0" x1="196.5" y1="103" x2="255.4" y2="103"/>
<line class="st0" x1="78.7" y1="103" x2="137.6" y2="144.8"/>
<line class="st0" x1="196.5" y1="103" x2="255.4" y2="144.8"/>
<line class="st0" x1="78.7" y1="103" x2="137.6" y2="186.7"/>
<line class="st0" x1="196.5" y1="103" x2="255.4" y2="186.7"/>
<line class="st0" x1="78.7" y1="144.8" x2="137.6" y2="19.3"/>
<line class="st0" x1="196.5" y1="144.8" x2="255.4" y2="19.3"/>
<line class="st0" x1="78.7" y1="144.8" x2="137.6" y2="61.2"/>
<line class="st0" x1="196.5" y1="144.8" x2="255.4" y2="61.2"/>
<line class="st0" x1="78.7" y1="144.8" x2="137.6" y2="103"/>
<line class="st0" x1="196.5" y1="144.8" x2="255.4" y2="103"/>
<line class="st0" x1="78.7" y1="144.8" x2="137.6" y2="144.8"/>
<line class="st0" x1="196.5" y1="144.8" x2="255.4" y2="144.8"/>
<line class="st0" x1="78.7" y1="144.8" x2="137.6" y2="186.7"/>
<line class="st0" x1="196.5" y1="144.8" x2="255.4" y2="186.7"/>
<line class="st0" x1="78.7" y1="186.7" x2="137.6" y2="19.3"/>
<line class="st0" x1="196.5" y1="186.7" x2="255.4" y2="19.3"/>
<line class="st0" x1="78.7" y1="186.7" x2="137.6" y2="61.2"/>
<line class="st0" x1="196.5" y1="186.7" x2="255.4" y2="61.2"/>
<line class="st0" x1="78.7" y1="186.7" x2="137.6" y2="103"/>
<line class="st0" x1="196.5" y1="186.7" x2="255.4" y2="103"/>
<line class="st0" x1="78.7" y1="186.7" x2="137.6" y2="144.8"/>
<line class="st0" x1="196.5" y1="186.7" x2="255.4" y2="144.8"/>
<line class="st0" x1="78.7" y1="186.7" x2="137.6" y2="186.7"/>
<line class="st0" x1="196.5" y1="186.7" x2="255.4" y2="186.7"/>
<line class="st0" x1="137.6" y1="19.3" x2="196.5" y2="19.3"/>
<line class="st0" x1="137.6" y1="186.7" x2="196.5" y2="19.3"/>
<line class="st0" x1="137.6" y1="61.2" x2="196.5" y2="19.3"/>
<line class="st0" x1="137.6" y1="103" x2="196.5" y2="19.3"/>
<line class="st0" x1="137.6" y1="144.8" x2="196.5" y2="19.3"/>
<line class="st0" x1="137.6" y1="19.3" x2="196.5" y2="186.7"/>
<line class="st0" x1="137.6" y1="61.2" x2="196.5" y2="186.7"/>
<line class="st0" x1="137.6" y1="103" x2="196.5" y2="186.7"/>
<line class="st0" x1="137.6" y1="144.8" x2="196.5" y2="186.7"/>
<line class="st0" x1="137.6" y1="186.7" x2="196.5" y2="61.2"/>
<line class="st0" x1="137.6" y1="144.8" x2="195.1" y2="61.2"/>
<line class="st0" x1="137.6" y1="103" x2="195.1" y2="61.2"/>
<line class="st0" x1="137.6" y1="186.7" x2="196.5" y2="186.7"/>
<line class="st0" x1="137.6" y1="61.2" x2="196.5" y2="61.2"/>
<line class="st0" x1="137.6" y1="19.3" x2="196.5" y2="61.2"/>
<line class="st0" x1="138.9" y1="103" x2="196.5" y2="103"/>
<line class="st0" x1="137.6" y1="19.3" x2="196.5" y2="103"/>
<line class="st0" x1="137.6" y1="61.2" x2="196.5" y2="103"/>
<line class="st0" x1="137.6" y1="103" x2="196.5" y2="144.8"/>
<line class="st0" x1="137.6" y1="186.7" x2="196.5" y2="144.8"/>
<line class="st0" x1="137.6" y1="19.3" x2="196.5" y2="144.8"/>
<line class="st0" x1="137.6" y1="61.2" x2="196.5" y2="144.8"/>
<line class="st0" x1="137.6" y1="144.8" x2="196.5" y2="103"/>
<line class="st0" x1="137.6" y1="186.7" x2="196.5" y2="103"/>
<line class="st0" x1="137.6" y1="144.8" x2="196.5" y2="144.8"/>
<circle class="st1" cx="19.9" cy="19.3" r="14.2"/>
<circle class="st1" cx="19.9" cy="61.2" r="14.2"/>
<circle class="st1" cx="19.9" cy="103" r="14.2"/>
<circle class="st1" cx="19.9" cy="144.8" r="14.2"/>
<circle class="st1" cx="19.9" cy="186.7" r="14.2"/>
<circle class="st2" cx="78.7" cy="19.3" r="14.2"/>
<circle class="st2" cx="78.7" cy="61.2" r="14.2"/>
<circle class="st2" cx="78.7" cy="103" r="14.2"/>
<circle class="st2" cx="78.7" cy="144.8" r="14.2"/>
<circle class="st2" cx="78.7" cy="186.7" r="14.2"/>
<circle class="st3" cx="137.6" cy="19.3" r="14.2"/>
<circle class="st3" cx="137.6" cy="61.2" r="14.2"/>
<circle class="st3" cx="137.6" cy="103" r="14.2"/>
<circle class="st3" cx="137.6" cy="144.8" r="14.2"/>
<circle class="st3" cx="137.6" cy="186.7" r="14.2"/>
<circle class="st4" cx="196.5" cy="19.3" r="14.2"/>
<circle class="st4" cx="196.5" cy="61.2" r="14.2"/>
<circle class="st4" cx="196.5" cy="103" r="14.2"/>
<circle class="st4" cx="196.5" cy="144.8" r="14.2"/>
<circle class="st4" cx="196.5" cy="186.7" r="14.2"/>
<circle class="st5" cx="255.4" cy="19.3" r="14.2"/>
<circle class="st5" cx="255.4" cy="61.2" r="14.2"/>
<circle class="st5" cx="255.4" cy="103" r="14.2"/>
<circle class="st5" cx="255.4" cy="144.8" r="14.2"/>
<circle class="st5" cx="255.4" cy="186.7" r="14.2"/>
</svg>
